<svg xmlns="http://www.w3.org/2000/svg" viewBox="0 0 512 512" width="512" height="512">
  <!-- Icona "key-fill" di Bootstrap Icons (licenza MIT) -->
  <defs>
    <clipPath id="r"><rect width="512" height="512" rx="104"/></clipPath>
    <path id="k" d="M3.5 11.5a3.5 3.5 0 1 1 3.163-5H14L15.5 8 14 9.5l-1-1-1 1-1-1-1 1-1-1-1 1H6.663a3.5 3.5 0 0 1-3.163 2M2.5 9a1 1 0 1 0 0-2 1 1 0 0 0 0 2"/>
  </defs>
  <g clip-path="url(#r)">
    <rect width="512" height="512" fill="#16a34a"/>
    <path fill="#15803d" d="M0 512V345C0 310 28 280 62 268Q92 285 130 283H382Q420 285 450 268C484 280 512 310 512 345V512Z"/>
    <g transform="translate(256 400) rotate(-42) rotate(90) scale(16.5) translate(-15.5 -8)">
      <use href="#k" fill="#ffffff"/>
    </g>
    <g transform="translate(256 400) rotate(42) scale(-1 1) rotate(90) scale(16.5) translate(-15.5 -8)">
      <use href="#k" fill="#16a34a" stroke="#16a34a" stroke-width="0.8" stroke-linejoin="round"/>
      <use href="#k" fill="#ffffff"/>
    </g>
    <g transform="translate(256 400) rotate(90) scale(16.5) translate(-15.5 -8)">
      <use href="#k" fill="#16a34a" stroke="#16a34a" stroke-width="0.8" stroke-linejoin="round"/>
      <use href="#k" fill="#ffffff"/>
    </g>
  </g>
</svg>
